HIERARCHY
ROOT Hips
{
	OFFSET 0.000000 0.000000 0.000000 
	CHANNELS 6 Xposition Yposition Zposition Zrotation Yrotation Xrotation
	JOINT LeftUpLeg
	{
		OFFSET 1.363060 -1.794630 0.839290 
		CHANNELS 3 Zrotation Yrotation Xrotation
		JOINT LeftLeg
		{
			OFFSET 2.448110 -6.726130 0.000000 
			CHANNELS 3 Zrotation Yrotation Xrotation
			JOINT LeftFoot
			{
				OFFSET 2.562200 -7.039590 0.000000 
				CHANNELS 3 Zrotation Yrotation Xrotation
				JOINT LeftToeBase
				{
					OFFSET 0.157640 -0.433110 2.322550 
					CHANNELS 3 Zrotation Yrotation Xrotation
					End Site
					{
						OFFSET 0.000000 0.000000 0.000000 
					}
				}
			}
		}
	}
	JOINT RightUpLeg
	{
		OFFSET -1.305520 -1.794630 0.839290 
		CHANNELS 3 Zrotation Yrotation Xrotation
		JOINT RightLeg
		{
			OFFSET -2.542530 -6.985550 0.000000 
			CHANNELS 3 Zrotation Yrotation Xrotation
			JOINT RightFoot
			{
				OFFSET -2.568260 -7.056230 0.000000 
				CHANNELS 3 Zrotation Yrotation Xrotation
				JOINT RightToeBase
				{
					OFFSET -0.164730 -0.452590 2.363150 
					CHANNELS 3 Zrotation Yrotation Xrotation
					End Site
					{
						OFFSET 0.000000 0.000000 0.000000 
					}
				}
			}
		}
	}
	JOINT Spine
	{
		OFFSET 0.028270 2.035590 -0.193380 
		CHANNELS 3 Zrotation Yrotation Xrotation
		JOINT Spine1
		{
			OFFSET 0.056720 2.048850 -0.042750 
			CHANNELS 3 Zrotation Yrotation Xrotation
			JOINT Neck1
			{
				OFFSET -0.054170 1.746240 0.172020 
				CHANNELS 3 Zrotation Yrotation Xrotation
				JOINT Head
				{
					OFFSET 0.104070 1.761360 -0.123970 
					CHANNELS 3 Zrotation Yrotation Xrotation
					End Site
					{
						OFFSET 0.000000 0.000000 0.000000 
					}
				}
			}
			JOINT LeftArm
			{
				OFFSET 3.362410 1.200890 -0.311210 
				CHANNELS 3 Zrotation Yrotation Xrotation
				JOINT LeftForeArm
				{
					OFFSET 4.983000 -0.000000 -0.000000 
					CHANNELS 3 Zrotation Yrotation Xrotation
					JOINT LeftHand
					{
						OFFSET 3.483560 -0.000000 -0.000000 
						CHANNELS 3 Zrotation Yrotation Xrotation
						JOINT LeftHandIndex1
						{
							OFFSET 0.715260 -0.000000 -0.000000 
							CHANNELS 3 Zrotation Yrotation Xrotation
							End Site
							{
								OFFSET 0.000000 0.000000 0.000000 
							}
						}
					}
				}
			}
			JOINT RightArm
			{
				OFFSET -3.136600 1.374050 -0.404650 
				CHANNELS 3 Zrotation Yrotation Xrotation
				JOINT RightForeArm
				{
					OFFSET -5.241900 -0.000000 -0.000000 
					CHANNELS 3 Zrotation Yrotation Xrotation
					JOINT RightHand
					{
						OFFSET -3.444170 -0.000000 -0.000000 
						CHANNELS 3 Zrotation Yrotation Xrotation
						JOINT RightHandIndex1
						{
							OFFSET -0.622530 -0.000000 -0.000000 
							CHANNELS 3 Zrotation Yrotation Xrotation
							End Site
							{
								OFFSET 0.000000 0.000000 0.000000 
							}
						}
					}
				}
			}
		}
	}
}
MOTION
Frames: 7
Frame Time: 0.041667
7.956957 17.063540 -5.851003 -19.286514 88.554506 -22.032172 -27.498708 11.047880 -1.613683 1.134417 7.328689 21.156399 0.982564 -3.400699 -9.550368 0.010700 -0.669100 -1.838800 24.848723 12.641444 -22.125705 -9.528061 -18.311419 58.418972 0.988655 -10.949990 -16.846443 -0.004500 0.435400 -1.196300 0.961498 -1.595828 -0.808423 -1.915301 -0.926196 2.904357 6.499170 -0.367220 9.357061 0.074400 0.239200 4.652300 -76.193431 -6.138504 28.375270 13.577549 -23.783202 -3.808676 -1.023076 -0.728539 -14.752434 -7.125000 0.000000 0.000000 79.864615 -3.943612 22.566013 -11.685015 22.729574 -3.009463 0.697197 -0.255208 5.796539 7.125000 0.000000 0.000000 
8.104527 17.058608 -5.853777 -15.606992 88.744596 -18.273797 -27.649197 11.125261 -0.749653 1.054989 7.097196 20.531116 0.954160 -3.105537 -9.771907 0.010100 -0.648400 -1.781700 24.515841 13.064559 -22.863747 -9.007993 -18.053433 56.788395 0.980602 -10.996885 -17.100334 -0.005200 0.467100 -1.283400 0.969121 -1.660819 -0.808474 -1.806706 -0.970493 2.908163 6.482618 -0.334084 9.303181 0.059900 0.250400 4.621100 -76.016047 -6.583877 28.698497 13.885950 -24.108385 -3.928108 -1.022806 -0.735238 -14.776273 -7.125000 0.000000 0.000000 79.854373 -4.119981 22.703966 -11.883047 22.965917 -3.078469 0.695112 -0.255734 5.513042 7.125000 0.000000 0.000000 
8.252713 17.054703 -5.855730 -11.249466 88.927299 -13.836612 -27.773854 11.276967 0.143744 0.964149 6.828704 19.804811 0.923387 -2.833815 -9.910095 0.010000 -0.644600 -1.771400 24.182784 13.429087 -23.556663 -8.472422 -17.761688 55.076577 0.998083 -11.115601 -17.229480 -0.005700 0.487400 -1.339200 0.977000 -1.723306 -0.807601 -1.698365 -1.013891 2.919798 6.472707 -0.303675 9.250006 0.050300 0.260600 4.591600 -75.842650 -7.035945 28.983623 14.174703 -24.408320 -4.041992 -1.023902 -0.742892 -14.760364 -7.125000 0.000000 0.000000 79.845351 -4.275674 22.829797 -12.064219 23.181128 -3.142285 0.694473 -0.254849 5.245037 7.125000 0.000000 0.000000 
8.401516 17.051209 -5.856963 -6.375904 89.099551 -8.883746 -27.861278 11.496737 1.066371 0.864647 6.527545 18.990913 0.894234 -2.605847 -9.981078 0.010200 -0.652700 -1.793800 23.862363 13.736276 -24.200038 -7.926923 -17.436500 53.297469 1.036247 -11.294423 -17.268832 -0.006000 0.499100 -1.371400 0.984767 -1.779597 -0.806336 -1.597851 -1.053525 2.934556 6.465280 -0.279629 9.196478 0.041400 0.268000 4.561000 -75.672234 -7.479034 29.260629 14.451868 -24.694024 -4.153130 -1.027047 -0.749287 -14.758213 -7.125000 0.000000 0.000000 79.844613 -4.422101 22.930329 -12.231581 23.379599 -3.202111 0.695094 -0.252193 5.002126 7.125000 0.000000 0.000000 
8.551038 17.048537 -5.857682 -0.958380 89.258013 -3.388213 -27.909142 11.765888 2.022493 0.758700 6.195895 18.095669 0.865444 -2.409514 -9.993888 0.011100 -0.680000 -1.868700 23.559076 13.998590 -24.792638 -7.375863 -17.078290 51.460590 1.090767 -11.524557 -17.247819 -0.006100 0.504800 -1.387100 0.992009 -1.829291 -0.805288 -1.507542 -1.088648 2.951046 6.462487 -0.260713 9.146846 0.035000 0.273500 4.531800 -75.506595 -7.911621 29.543511 14.715732 -24.963618 -4.260129 -1.032713 -0.752326 -14.821634 -7.125000 0.000000 0.000000 79.854111 -4.560400 23.000656 -12.379235 23.554547 -3.255503 0.696149 -0.247835 4.786052 7.125000 0.000000 0.000000 
8.701178 17.046070 -5.857580 4.961244 89.394852 2.610746 -27.913616 12.080525 3.011257 0.647467 5.833608 17.119114 0.836288 -2.239904 -9.946320 0.012800 -0.730800 -2.008500 23.278537 14.232293 -25.330053 -6.823330 -16.687404 49.573986 1.156134 -11.789621 -17.191990 -0.005900 0.497000 -1.365800 0.998261 -1.868277 -0.806327 -1.429882 -1.116742 2.959538 6.462774 -0.247362 9.100068 0.029500 0.276900 4.502500 -75.347543 -8.321895 29.826285 14.968875 -25.220165 -4.363703 -1.039534 -0.752616 -14.931936 -7.125000 0.000000 0.000000 79.877213 -4.695042 23.035703 -12.501330 23.699215 -3.299985 0.697197 -0.243096 4.606691 7.125000 0.000000 0.000000 
8.852139 17.043912 -5.856655 11.169978 89.502633 8.903084 -27.873357 12.439765 4.028594 0.531927 5.439664 16.057622 0.805402 -2.086508 -9.836364 0.015500 -0.803700 -2.208900 23.020653 14.461389 -25.812052 -6.272198 -16.263748 47.642222 1.227886 -12.075806 -17.124336 -0.004500 0.434600 -1.194200 1.002382 -1.892651 -0.810697 -1.370628 -1.134812 2.955935 6.466925 -0.237513 9.057361 0.024000 0.279600 4.472500 -75.188293 -8.707205 30.119847 15.208158 -25.460480 -4.461723 -1.046408 -0.751196 -15.094588 -7.125000 0.000000 0.000000 79.921835 -4.829995 23.033435 -12.595485 23.811255 -3.334812 0.698198 -0.239252 4.468980 7.125000 0.000000 0.000000 
